<?xml version="1.0" encoding="utf-8"?>
<!-- Generator: Adobe Illustrator 13.0.0, SVG Export Plug-In . SVG Version: 6.00 Build 14948)  -->
<!DOCTYPE svg PUBLIC "-//W3C//DTD SVG 1.1//EN" "http://www.w3.org/Graphics/SVG/1.1/DTD/svg11.dtd">
<svg version="1.1" id="Layer_1" xmlns="http://www.w3.org/2000/svg" xmlns:xlink="http://www.w3.org/1999/xlink" x="0px" y="0px"
	 width="525.912px" height="205.518px" viewBox="0 0 525.912 205.518" enable-background="new 0 0 525.912 205.518"
	 xml:space="preserve">
<path d="M178.86,47.195c0.571,0.8,0.855,1.42,0.855,3.482l-0.014,0.785l3.338,0.004c0-3.512-0.117-5.312-1.455-6.789
	c-0.266-0.294-1.013-1.154-2.01-1.484c-0.401,1.125-0.898,2.224-1.637,3.292C178.741,46.863,178.52,46.719,178.86,47.195"/>
<path d="M180.013,59.579c0,2.935-0.352,4.812-1.036,5.515c-0.752,0.772-1.139,1.038-3.15,1.179c-2.558,0.181-4.07-0.569-4.769-1.777
	c-0.698-1.208-0.652-3.679-0.652-8.101c0-2.974-0.046-4.777,0.159-6.345c-0.144,0.002-0.302,0.003-0.469,0.003
	c-1.337,0-2.337-0.079-3.097-0.204c-0.233,1.716-0.304,3.402-0.304,6.166c0,5.628,0.351,9.296,1.688,11.146
	c1.245,1.722,3.438,2.703,6.937,2.703c5.453,0,8.178-2.852,8.178-8.556l-0.015-1.743L180.013,59.579z"/>
<path d="M3.443,31.436v14.849l-0.102-0.106c0.719-2.49,2.726-3.409,6.021-3.409c4.882,0,6.998,2.81,6.998,8.754v1.087v16.864h-3.499
	V52.61v-0.102c0-4.013-0.848-6.507-3.845-6.507c-2.414,0-3.54,0.753-4.354,1.932c-0.814,1.18-1.221,3.201-1.221,6.711v14.831
	L0,69.511L0.014,31.44L3.443,31.436z"/>
<path d="M53.347,59.796l3.469-0.013l0.016,1.744c0,5.704-2.726,8.556-8.178,8.556c-3.499,0-5.692-0.981-6.937-2.704
	c-1.337-1.851-1.688-5.518-1.688-11.147c0-5.276,0.262-8.411,1.408-10.297c1.146-1.886,3.637-3.274,6.851-3.274
	c3.159,0,5.313,0.639,6.468,1.909c1.341,1.474,1.477,3.897,1.477,7.409l-3.36,0.026l0.013-0.948c0-2.062-0.285-2.845-0.855-3.645
	c-0.588-0.825-1.732-1.083-3.967-1.193c-2.14-0.105-2.75,0.473-3.592,1.695c-0.84,1.219-0.732,4.166-0.732,8.699
	c0,4.422-0.047,6.893,0.652,8.101c0.698,1.208,2.211,1.958,4.768,1.777c2.012-0.143,2.398-0.407,3.15-1.179
	C52.995,64.608,53.347,62.732,53.347,59.796"/>
<polygon points="62.241,31.543 62.241,53.564 63.708,53.564 70.432,43.389 74.182,43.389 66.335,55.091 75.689,69.448 
	71.676,69.448 63.728,57.079 62.241,57.079 62.241,69.448 58.848,69.448 58.834,31.543 "/>
<path d="M89.911,61.266l3.084-0.009l0.021,1.289c0,2.736-0.623,4.65-1.868,5.742c-1.245,1.092-3.429,1.638-6.551,1.638
	c-3.631,0-5.88-0.978-7.149-2.657c-1.357-1.795-1.54-5.472-1.54-11.145c0-5.25,0.183-8.983,1.55-10.596
	c1.378-1.625,3.373-2.758,6.702-2.758c3.699,0,5.569,0.813,7.144,2.4c1.301,1.311,1.854,4.847,1.854,9.858v2.065L79.484,57.12
	c0,4.149-0.038,6.524,0.63,7.663c0.667,1.138,1.951,1.667,4.431,1.728c2.324,0.058,3.329-0.292,4.024-0.833
	c0.694-0.542,0.792-0.407,1.301-2.582L89.911,61.266z M89.708,53.685v-0.812c0-2.846-0.193-4.573-0.895-5.427
	c-0.701-0.854-2.057-1.421-4.382-1.422c-2.386-0.001-3.501,0.706-4.195,1.706c-0.695,1.001-0.752,2.639-0.752,6.017L89.708,53.685z"
	/>
<path d="M199.667,61.05l3.083-0.009l0.021,1.289c0,2.736-0.623,4.65-1.867,5.742c-1.245,1.092-3.429,1.638-6.552,1.638
	c-3.631,0-5.88-0.979-7.148-2.657c-1.358-1.795-1.541-5.472-1.541-11.145c0-5.25,0.183-8.983,1.55-10.596
	c1.377-1.625,3.373-2.757,6.702-2.757c3.699,0,5.568,0.813,7.144,2.4c1.3,1.31,1.854,4.846,1.854,9.858v2.065l-13.673,0.027
	c0,4.148-0.038,6.524,0.63,7.662c0.667,1.138,1.952,1.667,4.431,1.728c2.324,0.058,3.33-0.292,4.024-0.833
	c0.695-0.541,0.793-0.407,1.301-2.581L199.667,61.05z M199.464,53.469v-0.812c0-2.846-0.193-4.574-0.894-5.427
	c-0.702-0.854-2.058-1.421-4.382-1.422c-2.386-0.001-3.5,0.706-4.195,1.706c-0.695,1.001-0.752,2.638-0.752,6.016L199.464,53.469z"
	/>
<path d="M94.987,43.279h3.298l0.01,3.237l-0.057-0.039c1.126-2.508,3.407-3.988,5.994-3.85c4.1,0.218,5.428,2.563,5.428,7.617
	l0.028,1.802l-3.212,0l0.028-0.651c0.041-0.706-0.002-1.439-0.028-1.68c-0.283-2.696-0.677-3.739-2.833-3.855
	c-3.168-0.17-4.76,2.685-4.76,8.054v15.48h-3.823L94.987,43.279z"/>
<path d="M153.088,50.298l-3.415-0.054c0-3.07-0.027-4.661,1.379-5.948c1.07-0.979,3.422-1.64,6.318-1.64
	c3.146,0,5.154,0.682,6.26,1.978c1.107,1.296,1.295,3.785,1.295,7.427v17.404l-3.409-0.144v-2.764v0.109
	c-0.406,2.168-3.17,3.116-6.396,3.116c-4.766,0-6.369-2.606-6.369-7.958c0-3.181,0.316-5.49,1.383-6.703s2.9-2.141,5.691-2.141
	c3.317,0,5.06,0.483,5.718,2.304l-0.055-2.872c0-3.016,0.05-4.312-0.542-5.203c-0.592-0.892-1.685-1.355-3.686-1.355
	c-3.396,0-4.174,0.694-4.174,3.36C153.088,49.343,153.076,49.912,153.088,50.298 M156.75,56.419c-2.12,0-3.038,0.193-3.606,0.925
	c-0.73,0.94-0.84,2.168-0.84,4.228c0,2.133,0.081,2.656,0.785,3.794c0.492,0.795,1.429,1.286,3.365,1.286
	c3.897,0,5.145-1.715,5.145-5.025c0-2.079,0.081-3.117-0.596-3.957C160.347,56.858,158.936,56.419,156.75,56.419"/>
<path d="M124.634,50.027c0,0,0.271-2.114-0.704-3.252c0,0-0.489-1.138-3.632-0.867c0,0-3.089-0.054-3.631,0.705
	c0,0-0.759,0.812-0.813,3.306c0,0-0.163,2.656,1.03,3.197c0,0,1.976,0.95,3.281,1.125c0.036,0.006,0.072,0.01,0.107,0.013
	c1.3,0.136,3.333,0.46,4.335,0.759c0,0,1.871,0.57,2.305,1.193c0,0,1.111,0.759,1.328,3.333v4.417c0,0,0.108,2.736-1.436,4.146
	c0,0-1.409,1.328-4.364,1.6h-4.906c0,0-2.656-0.028-4.092-1.274c0,0-1.219-0.976-1.382-3.469v-4.064h3.307v2.06
	c0,0,0.054,2.439,0.488,2.683c0,0,0.6,0.965,2.412,1.001c0.036,0,0.072,0.001,0.108,0.001h2.846c0,0,2.33,0,2.818-0.894
	c0,0,0.488-0.38,0.623-2.005v-2.601c0,0,0.081-1.735-0.949-2.358c0,0-0.975-0.895-3.333-1.328c0,0-3.279-0.542-4.878-1.003
	c0,0-1.626-0.243-2.602-1.599c0,0-0.57-0.65-0.57-3.144v-2.872c0,0-0.135-3.008,1.463-4.417c1.599-1.409,3.686-1.626,4.797-1.626
	h3.333c0,0,2.818-0.108,4.173,0.949c1.355,1.057,1.789,2.466,1.815,6.232L124.634,50.027z"/>
<path d="M145.318,45.407c-1.112-1.794-2.844-2.574-5.868-2.574c-2.785,0-5.045,1.776-6.117,3.402v-3.012h-3.036v35.772h3.036V65.262
	c0.232,0.738,0.49,1.347,0.762,1.824c0.996,1.751,2.836,2.627,5.843,2.627c2.862,0,4.294-0.923,5.34-2.538
	c1.321-2.041,1.498-5.135,1.498-10.425C146.775,50.938,146.343,47.061,145.318,45.407 M142.458,64.534
	c-0.619,1.295-1.897,1.942-3.833,1.942c-2.035,0-3.39-0.67-4.064-2.01c-0.674-1.34-1.011-4.025-1.011-8.056
	c0-4.358,0.458-7.229,1.084-8.552c0.625-1.322,1.821-1.951,3.88-1.951c2.047,0,3.219,0.597,3.972,1.969
	c0.693,1.266,0.765,4.232,0.765,8.681C143.251,60.606,143.078,63.24,142.458,64.534"/>
<path d="M29.695,4.769l0.515,16.964c0,0,0.027,0.895-0.786,0.895h-0.298c-0.813,0-0.786-0.895-0.786-0.895l0.515-16.964"/>
<path d="M29.241,24.174c0,0-0.989,0.067-1.599-0.813l-1.829,17.466c0,0-0.244,1.463,0.122,1.911c0,0,0.325,0.731,3.252,0.935h0.178
	c2.927-0.203,3.252-0.935,3.252-0.935c0.366-0.447,0.122-1.911,0.122-1.911l-1.83-17.466c-0.61,0.881-1.599,0.813-1.599,0.813"/>
<path d="M29.303,44.797c0,0-3.144,0.108-4.77-0.434c0,0-1.139-0.271-2.385-0.813l0.922,5.746c0,0,3.794-1.193,6.07-0.975h0.271
	c2.276-0.217,6.07,0.975,6.07,0.975l0.921-5.746c-1.247,0.542-2.385,0.813-2.385,0.813c-1.626,0.542-4.77,0.434-4.77,0.434"/>
<path d="M29.269,49.85c0,0,0.004,0,0.007,0c0.003,0,0.006,0,0.006,0H29.269z"/>
<path d="M37.386,67.723c-3.875-9.757-3.767-17.426-3.767-17.426c-0.915-0.278-4.201-0.44-4.343-0.447
	c-0.143,0.007-3.428,0.168-4.343,0.447c0,0,0.108,7.669-3.767,17.426c0,0-4.309,10.839-5.23,11.571l4.526-0.027
	c0,0,0.488-8.726,8.672-8.78h0.284c8.185,0.054,8.672,8.78,8.672,8.78l4.526,0.027C41.694,78.563,37.386,67.723,37.386,67.723
	 M29.276,68.753c-2.38,0-4.309-1.929-4.309-4.309c0-2.379,1.929-4.309,4.309-4.309c2.379,0,4.309,1.929,4.309,4.309
	C33.584,66.823,31.655,68.753,29.276,68.753"/>
<path d="M115.908,4.661v6.992h4.228v5.69h-4.228v12.683c0,0-0.245,2.927,3.902,2.439v5.61c0,0-5.447,1.422-9.594-0.772
	c-1.216-0.645-1.951-2.643-2.033-5l0.041-14.878l-2.316-0.041v-5.731h2.276V4.702"/>
<path d="M133.066,19.267c0,0,0.001-0.005,0.001-0.011v-0.001L133.066,19.267z"/>
<polyline points="142.492,0 142.659,37.913 150.091,37.913 150.091,24.353 150.108,24.39 154.606,37.886 162.411,37.886 
	156.828,22.873 161.057,11.545 154.064,11.545 150.091,21.855 150.091,0 "/>
<path d="M174.661,11.599l-2.452,21.72l-0.009,0.015l-2.254-21.79h-7.642l3.469,26.288h5.479l0.103,0.569
	c-0.406,4.715-5.69,3.089-5.69,3.089v5.284c0.976,0.975,5.69,0.732,5.69,0.732c5.854-0.082,6.993-9.62,6.993-9.62l3.847-26.233
	L174.661,11.599z"/>
<path d="M202.791,20.19c0.569-9.702-8.049-9.051-8.049-9.051l-3.577,0.054c-9.024-0.325-8.211,8.727-8.211,8.727l0.008,9.367
	c-0.569,9.702,8.049,9.052,8.049,9.052l3.577-0.054c9.025,0.325,8.212-8.727,8.212-8.727L202.791,20.19z M193.776,32.577
	l-1.724-0.003c-1.432,0.063-1.273-2.147-1.273-2.147l-0.005-11.101c0.008-2.248,1.252-2.289,1.252-2.289l1.725,0.002
	c1.378,0.097,1.277,2.071,1.268,2.219l0.01,11.192C195.021,32.698,193.776,32.577,193.776,32.577"/>
<polygon points="195.018,19.267 195.018,19.258 195.018,19.255 "/>
<path d="M140.84,20.19c0.569-9.702-8.049-9.051-8.049-9.051l-3.577,0.054c-9.025-0.325-8.212,8.727-8.212,8.727l0.008,9.367
	c-0.569,9.702,8.049,9.052,8.049,9.052l3.577-0.054c9.024,0.325,8.211-8.727,8.211-8.727L140.84,20.19z M131.825,32.577
	l-1.724-0.003c-1.431,0.063-1.274-2.147-1.274-2.147l-0.004-11.101c0.008-2.248,1.252-2.289,1.252-2.289l1.725,0.002
	c1.377,0.097,1.278,2.071,1.268,2.219l0.011,11.192C133.07,32.698,131.825,32.577,131.825,32.577"/>
<path d="M133.066,19.267c0,0,0.001-0.004,0.001-0.01v-0.003L133.066,19.267z"/>
</svg>
