<?xml version="1.0" encoding="utf-8"?>
<!DOCTYPE svg PUBLIC "-//W3C//DTD SVG 1.1//EN" "http://www.w3.org/Graphics/SVG/1.1/DTD/svg11.dtd">

<svg version="1.1" xmlns="http://www.w3.org/2000/svg" xmlns:xlink="http://www.w3.org/1999/xlink" width="176" height="32" viewBox="0 0 570 222">
<defs>
	
	<g id="id404">
		<path fill-rule="evenodd" clip-rule="evenodd" d="M161.678,142.284c-4.521-2.045-10.527-3.067-18.014-3.067
			h-6.272V26.148c0-16.946-7.391-25.419-22.17-25.419c-4.572,0-8.485,1.534-11.741,4.602c-3.259,3.067-7.416,8.012-12.471,14.827
			L13.704,123.732c-2.14,2.825-3.938,5.211-5.396,7.158c-1.458,1.949-2.87,3.969-4.23,6.063c-1.363,2.095-2.384,4.09-3.063,5.989
			c-0.682,1.898-1.021,3.775-1.021,5.624c0,7.208,2.309,12.905,6.928,17.092c4.617,4.188,11.545,6.281,20.785,6.281h73.221
			v27.172c0,7.305,1.677,12.833,5.032,16.58c3.354,3.748,7.753,5.625,13.2,5.625c5.542,0,9.966-1.826,13.273-5.479
			c3.305-3.652,4.959-9.226,4.959-16.727v-27.172h8.897c7.389,0,12.932-1.289,16.628-3.871c3.694-2.579,5.542-6.694,5.542-12.344
			C168.46,148.811,166.199,144.33,161.678,142.284z M100.928,139.217H38.208l62.719-84.875V139.217z M563.227,142.284
			c-4.521-2.045-10.527-3.067-18.014-3.067h-6.271V26.148c0-16.946-7.392-25.419-22.171-25.419
			c-4.572,0-8.485,1.534-11.741,4.602c-3.26,3.067-7.416,8.012-12.472,14.827l-77.305,103.574
			c-2.14,2.825-3.938,5.211-5.396,7.158c-1.459,1.949-2.869,3.969-4.23,6.063c-1.362,2.095-2.384,4.09-3.063,5.989
			c-0.682,1.898-1.021,3.775-1.021,5.624c0,7.208,2.309,12.905,6.929,17.092c4.617,4.188,11.545,6.281,20.784,6.281h73.222
			v27.172c0,7.305,1.677,12.833,5.032,16.58c3.354,3.748,7.753,5.625,13.2,5.625c5.542,0,9.966-1.826,13.272-5.479
			c3.305-3.652,4.96-9.226,4.96-16.727v-27.172h8.896c7.389,0,12.932-1.289,16.628-3.871c3.694-2.579,5.543-6.694,5.543-12.344
			C570.009,148.811,567.748,144.33,563.227,142.284z M502.477,139.217h-62.72l62.72-84.875V139.217z"/>
		<path d="M282.943,0c-61.111,0-110.829,49.794-110.829,111s49.717,111,110.829,111s110.829-49.794,110.829-111
			S344.055,0,282.943,0z M282.943,218.563c-59.219,0-107.396-48.253-107.396-107.563c0-59.311,48.177-107.563,107.396-107.563
			S390.34,51.689,390.34,111C390.34,170.31,342.162,218.563,282.943,218.563z"/>
		<path d="M252.327,48.591c-0.732-2.398-2.099-4.331-4.097-5.797c-1.999-1.468-4.255-2.201-6.769-2.201
			s-4.77,0.733-6.769,2.201c-1.999,1.466-3.364,3.398-4.096,5.797c-0.159,0.495-0.119,0.978,0.119,1.442
			c0.237,0.466,0.613,0.777,1.128,0.936c0.495,0.159,0.975,0.12,1.44-0.119c0.465-0.238,0.776-0.612,0.935-1.13
			c0.494-1.584,1.41-2.868,2.746-3.85c1.336-0.98,2.835-1.472,4.498-1.472c1.663,0,3.162,0.491,4.498,1.472
			c1.336,0.981,2.251,2.266,2.746,3.85c0.158,0.518,0.475,0.892,0.95,1.13c0.475,0.239,0.959,0.278,1.454,0.119
			c0.495-0.158,0.861-0.47,1.099-0.936C252.445,49.568,252.485,49.086,252.327,48.591z"/>
		<path fill-rule="evenodd" clip-rule="evenodd" d="M256.502,64.794c-5.613-5.621-14.3-6.339-21.025-2.287
			l1.111,1.113c1.664,1.667,1.614,4.417-0.111,6.146c-1.725,1.728-4.472,1.777-6.135,0.112l-1.112-1.113
			c-4.046,6.737-3.328,15.437,2.284,21.057c6.655,6.666,17.643,6.466,24.543-0.445C262.957,82.466,263.156,71.459,256.502,64.794
			z"/>
		<path d="M252.327,48.591c-0.732-2.398-2.099-4.331-4.097-5.797c-1.999-1.468-4.255-2.201-6.769-2.201
			s-4.77,0.733-6.769,2.201c-1.999,1.466-3.364,3.398-4.096,5.797c-0.159,0.495-0.119,0.978,0.119,1.442
			c0.237,0.466,0.613,0.777,1.128,0.936c0.495,0.159,0.975,0.12,1.44-0.119c0.465-0.238,0.776-0.612,0.935-1.13
			c0.494-1.584,1.41-2.868,2.746-3.85c1.336-0.98,2.835-1.472,4.498-1.472c1.663,0,3.162,0.491,4.498,1.472
			c1.336,0.981,2.251,2.266,2.746,3.85c0.158,0.518,0.475,0.892,0.95,1.13c0.475,0.239,0.959,0.278,1.454,0.119
			c0.495-0.158,0.861-0.47,1.099-0.936C252.445,49.568,252.485,49.086,252.327,48.591z"/>
		<path fill-rule="evenodd" clip-rule="evenodd" d="M340.445,64.826c-5.613-5.622-14.3-6.341-21.025-2.288
			l1.111,1.113c1.663,1.666,1.613,4.418-0.111,6.146c-1.726,1.728-4.473,1.777-6.136,0.11l-1.11-1.112
			c-4.048,6.735-3.33,15.436,2.282,21.059c6.655,6.663,17.644,6.465,24.544-0.445C346.9,82.496,347.1,71.49,340.445,64.826z"/>
		<path d="M336.557,48.591c-0.732-2.398-2.098-4.331-4.097-5.797c-1.999-1.468-4.256-2.201-6.769-2.201
			c-2.514,0-4.77,0.733-6.769,2.201c-1.999,1.466-3.364,3.398-4.097,5.797c-0.158,0.495-0.118,0.978,0.119,1.442
			c0.237,0.466,0.613,0.777,1.128,0.936c0.494,0.159,0.975,0.12,1.439-0.119c0.465-0.238,0.777-0.612,0.936-1.13
			c0.494-1.584,1.41-2.868,2.746-3.85c1.335-0.98,2.835-1.472,4.497-1.472c1.663,0,3.162,0.491,4.498,1.472
			c1.336,0.981,2.251,2.266,2.745,3.85c0.158,0.518,0.476,0.892,0.95,1.13c0.476,0.239,0.96,0.278,1.455,0.119
			c0.494-0.158,0.861-0.47,1.099-0.936C336.676,49.568,336.715,49.086,336.557,48.591z"/>
		<path d="M346.016,161.556c-15.795-16.179-38.08-26.275-62.737-26.275c-24.836,0-47.265,10.243-63.079,26.628
			c-1.81,2.962,2.249,5.43,5.837,4.338c2.448-0.742,4.677-4.859,4.677-4.859c14.043-12.037,32.446-19.345,52.565-19.345
			c20.233,0,38.731,7.391,52.804,19.55C339.309,166.355,350.369,168.351,346.016,161.556z"/>
	</g>
</defs>
</svg>
