<?xml version="1.0" encoding="utf-8"?>
<!DOCTYPE svg PUBLIC "-//W3C//DTD SVG 1.1//EN" "http://www.w3.org/Graphics/SVG/1.1/DTD/svg11.dtd">
<svg version="1.1" xmlns="http://www.w3.org/2000/svg" xmlns:xlink="http://www.w3.org/1999/xlink" 
	width="1000" height="1000" viewBox="0 0 1000 1000">
<defs>
	<g id="logoCorporate">
		<path d="M47.7 75c0-3.9-1-6.9-3-9.2 -2-2.3-5.5-4.5-10.6-6.7 -10.3-3.6-18.1-7.7-23.2-12.3 -5.2-4.6-7.7-11-7.7-19.2 0-8.2 3-14.8 9-19.9s13.7-7.7 23-7.7c9.5 0 17.2 2.9 23.1 8.6 5.9 5.7 8.8 12.9 8.6 21.6l-0.1 0.4H47.9c0-4.6-1.1-8.2-3.4-11.1 -2.3-2.8-5.5-4.2-9.6-4.2 -3.9 0-6.9 1.2-9 3.5 -2.2 2.3-3.2 5.3-3.2 8.9 0 3.3 1.2 6 3.6 8.1 2.4 2.1 6.6 4.5 12.6 7.1 9.4 3.2 16.5 7.2 21.3 12.1 4.8 4.9 7.1 11.5 7.1 19.9 0 8.6-2.9 15.4-8.6 20.2 -5.7 4.9-13.4 7.3-22.9 7.3 -9.5 0-17.7-2.8-24.6-8.3C4.1 88.6 0.7 80.7 1 70.3l0.1-0.4h18.9c0 6.2 1.3 10.6 3.9 13.3 2.6 2.7 6.5 4 11.7 4 4.1 0 7.1-1.1 9.1-3.3S47.7 78.8 47.7 75zM98.8 65.2V101H79.3V1.5h34.5c9.9 0 17.8 2.9 23.5 8.8 5.7 5.9 8.6 13.6 8.6 23.1 0 9.6-2.9 17.3-8.6 23.1 -5.8 5.9-13.6 8.8-23.5 8.8H98.8zM98.8 49.7h15.1c4.1 0 7.3-1.5 9.5-4.6 2.2-3.1 3.3-6.9 3.3-11.6 0-4.7-1.1-8.7-3.2-11.8 -2.2-3.1-5.3-4.7-9.5-4.7H98.8V49.7zM178.7 101H159.4V1.5h19.3V101zM214.3 61.4V101h-19.4V1.5h32.4c9.8 0 17.5 2.6 23 7.8 5.6 5.2 8.4 12.4 8.4 21.6 0 5.2-1.2 9.7-3.5 13.4 -2.3 3.8-5.7 6.8-10.2 9 5.1 1.7 8.8 4.6 11 8.6 2.3 4 3.4 9 3.4 15v7c0 2.7 0.3 5.7 1 8.8 0.6 3.1 1.8 5.4 3.3 6.8V101h-20.1c-1.6-1.5-2.6-3.8-3-7.1s-0.6-6.6-0.6-10v-6.8c0-5-1-8.8-3-11.6 -2-2.7-4.9-4.1-8.7-4.1H214.3zM214.3 45.9h13c4 0 7-1.2 9-3.6 2-2.4 3.1-5.9 3.1-10.3 0-4.6-1-8.2-3.1-10.9 -2-2.7-5-4-8.9-4h-13V45.9zM318.9 79.7H292.7L287.3 101h-19.6l28-99.5h20.2L343.9 101h-19.6L318.9 79.7zM296.6 64.2h18.3l-8.9-35.2h-0.4L296.6 64.2zM401.3 17h-22.4V101h-19.4V17h-22.3V1.5h64V17zM431 101h-19.3V1.5h19.3V101zM514.1 65.2c0 11.7-3.2 20.8-9.5 27.3 -6.3 6.6-14.7 9.8-25.3 9.8 -10.5 0-18.9-3.3-25.2-9.8s-9.4-15.7-9.4-27.3V37.4c0-11.6 3.1-20.7 9.4-27.4s14.7-9.9 25.1-9.9c10.5 0 18.9 3.3 25.3 9.9s9.6 15.8 9.6 27.4V65.2zM494.8 37.1c0-7.1-1.3-12.5-4-16.1 -2.6-3.6-6.5-5.5-11.5-5.5 -5.1 0-8.9 1.8-11.5 5.4 -2.6 3.6-3.8 9-3.8 16.2v28.1c0 7.2 1.3 12.6 3.9 16.2 2.6 3.6 6.4 5.4 11.5 5.4 5 0 8.8-1.8 11.5-5.4 2.6-3.6 4-9 4-16.2V37.1zM596.3 101h-19.3l-30.4-63.6 -0.4 0.1V101h-19.5V1.5h19.5l30.4 63.6 0.4-0.1V1.5h19.3V101z"/>
	    <g enable-background="new    ">
	      <rect x="652" y="14" width="3" height="67"/>
	    </g>
    	<path d="M706.8 59.2c-1.6 1.5-3.8 2.2-6.6 2.2s-5-1-6.8-3.1 -2.6-4.7-2.6-8v-4.2c0-3.3 0.9-6 2.6-8s4-3.1 6.8-3.1 5 0.7 6.6 2.1c1.6 1.4 2.5 3.5 2.7 6.1l0 0.1h-2c-0.6-4.4-3-6.5-7.2-6.5 -2.2 0-4 0.9-5.4 2.6 -1.4 1.7-2 3.9-2 6.7v4.2c0 2.8 0.7 5 2 6.7s3.1 2.6 5.3 2.6 3.9-0.5 5.1-1.6c1.2-1.1 1.9-2.7 2.2-4.9h2l0 0.1C709.3 55.7 708.4 57.8 706.8 59.2zM733.7 46.2v4.2c0 3.3-0.9 6-2.7 8 -1.8 2-4.2 3-7.2 3 -3 0-5.4-1-7.2-3s-2.7-4.7-2.7-8v-4.2c0-3.3 0.9-6 2.7-8s4.2-3 7.2-3c3 0 5.4 1 7.3 3C732.7 40.2 733.7 42.8 733.7 46.2zM731.6 50.3v-4.2c0-2.8-0.7-5.1-2.1-6.7 -1.4-1.7-3.3-2.5-5.8-2.5 -2.4 0-4.3 0.8-5.7 2.5 -1.4 1.7-2 3.9-2 6.7v4.2c0 2.8 0.7 5.1 2 6.7 1.4 1.7 3.3 2.5 5.7 2.5 2.5 0 4.4-0.8 5.8-2.5C730.9 55.4 731.6 53.2 731.6 50.3zM748.4 49.4h-7.2V61h-2.1V35.4h8.7c2.8 0 4.9 0.6 6.3 1.8 1.5 1.2 2.2 3 2.2 5.3 0 1.4-0.4 2.6-1.2 3.7 -0.8 1.1-1.9 1.8-3.3 2.3 3 0.8 4.5 2.8 4.5 6v2.4c0 1.7 0.4 3 1.2 3.7V61h-2.1c-0.8-0.8-1.2-2.1-1.2-4.1v-2.3c0-1.6-0.5-2.8-1.5-3.7C751.6 49.9 750.2 49.4 748.4 49.4zM741.2 37.2v10.4h6.3c2.3 0 3.9-0.4 5-1.3 1.1-0.9 1.6-2.2 1.6-3.9s-0.5-3-1.6-3.9 -2.7-1.3-4.8-1.3H741.2zM764.9 61h-2.1V35.4h8.8c2.7 0 4.7 0.7 6.2 2 1.5 1.3 2.2 3.2 2.2 5.5s-0.7 4.1-2.2 5.5c-1.5 1.3-3.5 2-6.2 2l-6.7 0V61zM764.9 37.2v11.4h6.7c2.1 0 3.6-0.5 4.7-1.6 1.1-1 1.6-2.4 1.6-4.1 0-1.7-0.5-3.1-1.6-4.1 -1.1-1-2.7-1.6-4.7-1.6H764.9zM803.7 46.2v4.2c0 3.3-0.9 6-2.7 8 -1.8 2-4.2 3-7.2 3 -3 0-5.4-1-7.2-3s-2.7-4.7-2.7-8v-4.2c0-3.3 0.9-6 2.7-8s4.2-3 7.2-3c3 0 5.4 1 7.3 3C802.8 40.2 803.7 42.8 803.7 46.2zM801.7 50.3v-4.2c0-2.8-0.7-5.1-2.1-6.7 -1.4-1.7-3.3-2.5-5.8-2.5 -2.4 0-4.3 0.8-5.7 2.5 -1.4 1.7-2 3.9-2 6.7v4.2c0 2.8 0.7 5.1 2 6.7 1.4 1.7 3.3 2.5 5.7 2.5 2.5 0 4.4-0.8 5.8-2.5C801 55.4 801.7 53.2 801.7 50.3zM818.5 49.4h-7.2V61h-2.1V35.4h8.7c2.8 0 4.9 0.6 6.3 1.8 1.5 1.2 2.2 3 2.2 5.3 0 1.4-0.4 2.6-1.2 3.7 -0.8 1.1-1.9 1.8-3.3 2.3 3 0.8 4.5 2.8 4.5 6v2.4c0 1.7 0.4 3 1.2 3.7V61H825.4c-0.8-0.8-1.2-2.1-1.2-4.1v-2.3c0-1.6-0.5-2.8-1.5-3.7C821.7 49.9 820.3 49.4 818.5 49.4zM811.3 37.2v10.4h6.3c2.3 0 3.9-0.4 5-1.3 1.1-0.9 1.6-2.2 1.6-3.9s-0.5-3-1.6-3.9 -2.7-1.3-4.8-1.3H811.3zM849.3 61l-2.6-7.1H834.9L832.3 61h-2.2l9.7-25.6h2L851.5 61H849.3zM840.8 38.1l-5.1 13.8h10.3l-5.1-13.8H840.8zM870.6 35.4v1.8h-8.8V61h-2.1V37.2h-8.8v-1.8H870.6zM889.2 46.8v1.8h-12.3v10.6h14.1V61h-16.2V35.4h16.1v1.8h-14v9.6H889.2z"/>
	</g>
	<g id="logoMagazine">
		<path d="M47.746,75.023c0-3.873-1.002-6.938-3.004-9.194c-2.003-2.256-5.53-4.478-10.583-6.665
			c-10.333-3.6-18.083-7.69-23.249-12.271c-5.167-4.58-7.75-10.994-7.75-19.243c0-8.157,3.004-14.8,9.013-19.927
			s13.678-7.69,23.01-7.69c9.467,0,17.161,2.86,23.079,8.579c5.917,5.72,8.784,12.932,8.603,21.636l-0.137,0.41H47.882
			c0-4.557-1.139-8.248-3.414-11.074c-2.277-2.825-5.486-4.238-9.627-4.238c-3.87,0-6.885,1.174-9.047,3.521
			c-2.163,2.348-3.243,5.298-3.243,8.853c0,3.281,1.206,5.981,3.619,8.101c2.412,2.119,6.6,4.478,12.563,7.075
			c9.422,3.19,16.512,7.235,21.269,12.134c4.756,4.899,7.135,11.519,7.135,19.858c0,8.613-2.868,15.358-8.603,20.234
			c-5.735,4.877-13.36,7.314-22.874,7.314c-9.468,0-17.673-2.769-24.614-8.306C4.104,88.593,0.747,80.652,0.975,70.307l0.137-0.41
			h18.913c0,6.152,1.297,10.573,3.892,13.262c2.594,2.689,6.509,4.033,11.744,4.033c4.097,0,7.135-1.094,9.115-3.281
			S47.746,78.761,47.746,75.023z"/>
		<path d="M98.75,65.248V101H79.29V1.469h34.549c9.923,0,17.752,2.936,23.488,8.809
			c5.736,5.873,8.604,13.566,8.604,23.081c0,9.561-2.879,17.266-8.637,23.115c-5.759,5.85-13.577,8.774-23.454,8.774H98.75z
			 M98.75,49.73h15.089c4.142,0,7.306-1.529,9.491-4.59c2.185-3.059,3.277-6.941,3.277-11.646c0-4.749-1.082-8.688-3.243-11.816
			c-2.163-3.127-5.337-4.692-9.525-4.692H98.75V49.73z"/>
		<path d="M178.704,101H159.38V1.469h19.323V101z"/>
		<path d="M214.277,61.42V101h-19.391V1.537h32.432c9.786,0,17.468,2.587,23.044,7.759
			c5.576,5.173,8.364,12.362,8.364,21.567c0,5.195-1.161,9.673-3.482,13.433c-2.322,3.76-5.713,6.757-10.174,8.989
			c5.098,1.732,8.774,4.604,11.027,8.613c2.253,4.011,3.379,9.023,3.379,15.039v7.041c0,2.734,0.318,5.663,0.956,8.784
			c0.637,3.122,1.752,5.39,3.346,6.802V101h-20.074c-1.594-1.458-2.595-3.828-3.004-7.109s-0.615-6.631-0.615-10.049v-6.768
			c0-4.967-1.013-8.818-3.038-11.553c-2.026-2.734-4.928-4.102-8.706-4.102H214.277z M214.277,45.902h12.973
			c3.96,0,6.965-1.207,9.013-3.623c2.048-2.415,3.072-5.855,3.072-10.322c0-4.557-1.024-8.18-3.072-10.869
			c-2.048-2.688-5.03-4.033-8.945-4.033h-13.041V45.902z"/>
		<path d="M318.879,79.74H292.66L287.334,101h-19.596l27.995-99.531h20.21L343.869,101h-19.596L318.879,79.74z
			 M296.62,64.223h18.299l-8.944-35.205h-0.41L296.62,64.223z"/>
		<path d="M401.292,16.986h-22.396V101h-19.391V16.986h-22.259V1.469h64.045V16.986z"/>
		<path d="M430.993,101h-19.323V1.469h19.323V101z"/>
		<path d="M514.088,65.248c0,11.667-3.164,20.781-9.492,27.344c-6.326,6.563-14.748,9.844-25.262,9.844
			c-10.516,0-18.914-3.281-25.195-9.844s-9.422-15.677-9.422-27.344V37.357c0-11.621,3.141-20.747,9.422-27.378
			s14.656-9.946,25.127-9.946c10.469,0,18.889,3.315,25.262,9.946s9.561,15.757,9.561,27.378V65.248z M494.764,37.146
			c0-7.13-1.32-12.511-3.959-16.145c-2.641-3.634-6.486-5.451-11.539-5.451c-5.1,0-8.922,1.806-11.471,5.417
			c-2.551,3.61-3.824,9.003-3.824,16.179v28.109c0,7.221,1.297,12.638,3.893,16.248c2.594,3.61,6.418,5.415,11.471,5.415
			c5.006,0,8.83-1.805,11.471-5.415c2.639-3.61,3.959-9.027,3.959-16.248V37.146z"/>
		<path d="M596.295,101h-19.322l-30.385-63.643l-0.41,0.137V101h-19.459V1.469h19.459l30.385,63.574l0.41-0.137
			V1.469h19.322V101z"/>

		<g>
			<rect x="652.009" y="14.014" fill="#CDCDCD" width="2.986" height="66.979"/>
		</g>

		<path d="M691.926,35.414h2.751l9.402,22.52h0.098l9.423-22.52h2.789V61h-2.087V49.691l0.176-11.191l-0.117-0.039
			L704.859,61h-1.443l-9.48-22.422h-0.117l0.194,11.113V61h-2.087V35.414z"/>
		<path d="M739.467,61l-2.634-7.129h-11.724L722.476,61h-2.166l9.716-25.586h1.97L741.633,61H739.467z
			 M730.941,38.129l-5.13,13.848h10.339l-5.092-13.848H730.941z"/>
		<path d="M763.794,48.891v9.102c-0.638,0.938-1.733,1.741-3.287,2.412c-1.555,0.671-3.411,1.006-5.569,1.006
			c-3.005,0-5.453-1.013-7.346-3.037c-1.892-2.024-2.838-4.651-2.838-7.881v-4.688c0-3.177,0.903-5.758,2.712-7.744
			c1.808-1.985,4.106-2.979,6.896-2.979c2.79,0,4.975,0.671,6.555,2.012c1.58,1.341,2.494,3.145,2.741,5.41l-0.039,0.117h-1.951
			c-0.312-1.81-1.053-3.219-2.224-4.229c-1.17-1.009-2.857-1.514-5.063-1.514c-2.204,0-4.009,0.824-5.413,2.471
			c-1.404,1.647-2.107,3.786-2.107,6.416v4.727c0,2.695,0.745,4.893,2.234,6.592c1.488,1.699,3.437,2.549,5.843,2.549
			c1.6,0,3.007-0.225,4.223-0.674c1.217-0.449,2.059-0.979,2.526-1.592v-6.68h-6.788v-1.797H763.794z"/>
		<path d="M786.521,61l-2.634-7.129h-11.724L769.529,61h-2.166l9.716-25.586h1.97L788.687,61H786.521z
			 M777.995,38.129l-5.13,13.848h10.339l-5.092-13.848H777.995z"/>
		<path d="M809.111,59.223V61H790.93v-1.621l15.061-22.188h-14.593v-1.777h17.148v1.523l-15.119,22.285H809.111z"
			/>
		<path d="M816.661,35.414V61h-2.107V35.414H816.661z"/>
		<path d="M842.665,35.414V61h-2.087l-14.534-22.012l-0.098,0.02V61h-2.106V35.414h2.106l14.515,21.973l0.117-0.02
			V35.414H842.665z"/>
		<path d="M863.773,46.82v1.777h-12.311v10.625h14.104V61h-16.191V35.414h16.094v1.777h-14.007v9.629H863.773z"/>
	</g>
	<g id="id404">
		<path fill-rule="evenodd" clip-rule="evenodd" d="M161.678,142.284c-4.521-2.045-10.527-3.067-18.014-3.067
			h-6.272V26.148c0-16.946-7.391-25.419-22.17-25.419c-4.572,0-8.485,1.534-11.741,4.602c-3.259,3.067-7.416,8.012-12.471,14.827
			L13.704,123.732c-2.14,2.825-3.938,5.211-5.396,7.158c-1.458,1.949-2.87,3.969-4.23,6.063c-1.363,2.095-2.384,4.09-3.063,5.989
			c-0.682,1.898-1.021,3.775-1.021,5.624c0,7.208,2.309,12.905,6.928,17.092c4.617,4.188,11.545,6.281,20.785,6.281h73.221
			v27.172c0,7.305,1.677,12.833,5.032,16.58c3.354,3.748,7.753,5.625,13.2,5.625c5.542,0,9.966-1.826,13.273-5.479
			c3.305-3.652,4.959-9.226,4.959-16.727v-27.172h8.897c7.389,0,12.932-1.289,16.628-3.871c3.694-2.579,5.542-6.694,5.542-12.344
			C168.46,148.811,166.199,144.33,161.678,142.284z M100.928,139.217H38.208l62.719-84.875V139.217z M563.227,142.284
			c-4.521-2.045-10.527-3.067-18.014-3.067h-6.271V26.148c0-16.946-7.392-25.419-22.171-25.419
			c-4.572,0-8.485,1.534-11.741,4.602c-3.26,3.067-7.416,8.012-12.472,14.827l-77.305,103.574
			c-2.14,2.825-3.938,5.211-5.396,7.158c-1.459,1.949-2.869,3.969-4.23,6.063c-1.362,2.095-2.384,4.09-3.063,5.989
			c-0.682,1.898-1.021,3.775-1.021,5.624c0,7.208,2.309,12.905,6.929,17.092c4.617,4.188,11.545,6.281,20.784,6.281h73.222
			v27.172c0,7.305,1.677,12.833,5.032,16.58c3.354,3.748,7.753,5.625,13.2,5.625c5.542,0,9.966-1.826,13.272-5.479
			c3.305-3.652,4.96-9.226,4.96-16.727v-27.172h8.896c7.389,0,12.932-1.289,16.628-3.871c3.694-2.579,5.543-6.694,5.543-12.344
			C570.009,148.811,567.748,144.33,563.227,142.284z M502.477,139.217h-62.72l62.72-84.875V139.217z"/>
		<path d="M282.943,0c-61.111,0-110.829,49.794-110.829,111s49.717,111,110.829,111s110.829-49.794,110.829-111
			S344.055,0,282.943,0z M282.943,218.563c-59.219,0-107.396-48.253-107.396-107.563c0-59.311,48.177-107.563,107.396-107.563
			S390.34,51.689,390.34,111C390.34,170.31,342.162,218.563,282.943,218.563z"/>
		<path d="M252.327,48.591c-0.732-2.398-2.099-4.331-4.097-5.797c-1.999-1.468-4.255-2.201-6.769-2.201
			s-4.77,0.733-6.769,2.201c-1.999,1.466-3.364,3.398-4.096,5.797c-0.159,0.495-0.119,0.978,0.119,1.442
			c0.237,0.466,0.613,0.777,1.128,0.936c0.495,0.159,0.975,0.12,1.44-0.119c0.465-0.238,0.776-0.612,0.935-1.13
			c0.494-1.584,1.41-2.868,2.746-3.85c1.336-0.98,2.835-1.472,4.498-1.472c1.663,0,3.162,0.491,4.498,1.472
			c1.336,0.981,2.251,2.266,2.746,3.85c0.158,0.518,0.475,0.892,0.95,1.13c0.475,0.239,0.959,0.278,1.454,0.119
			c0.495-0.158,0.861-0.47,1.099-0.936C252.445,49.568,252.485,49.086,252.327,48.591z"/>
		<path fill-rule="evenodd" clip-rule="evenodd" d="M256.502,64.794c-5.613-5.621-14.3-6.339-21.025-2.287
			l1.111,1.113c1.664,1.667,1.614,4.417-0.111,6.146c-1.725,1.728-4.472,1.777-6.135,0.112l-1.112-1.113
			c-4.046,6.737-3.328,15.437,2.284,21.057c6.655,6.666,17.643,6.466,24.543-0.445C262.957,82.466,263.156,71.459,256.502,64.794
			z"/>
		<path d="M252.327,48.591c-0.732-2.398-2.099-4.331-4.097-5.797c-1.999-1.468-4.255-2.201-6.769-2.201
			s-4.77,0.733-6.769,2.201c-1.999,1.466-3.364,3.398-4.096,5.797c-0.159,0.495-0.119,0.978,0.119,1.442
			c0.237,0.466,0.613,0.777,1.128,0.936c0.495,0.159,0.975,0.12,1.44-0.119c0.465-0.238,0.776-0.612,0.935-1.13
			c0.494-1.584,1.41-2.868,2.746-3.85c1.336-0.98,2.835-1.472,4.498-1.472c1.663,0,3.162,0.491,4.498,1.472
			c1.336,0.981,2.251,2.266,2.746,3.85c0.158,0.518,0.475,0.892,0.95,1.13c0.475,0.239,0.959,0.278,1.454,0.119
			c0.495-0.158,0.861-0.47,1.099-0.936C252.445,49.568,252.485,49.086,252.327,48.591z"/>
		<path fill-rule="evenodd" clip-rule="evenodd" d="M340.445,64.826c-5.613-5.622-14.3-6.341-21.025-2.288
			l1.111,1.113c1.663,1.666,1.613,4.418-0.111,6.146c-1.726,1.728-4.473,1.777-6.136,0.11l-1.11-1.112
			c-4.048,6.735-3.33,15.436,2.282,21.059c6.655,6.663,17.644,6.465,24.544-0.445C346.9,82.496,347.1,71.49,340.445,64.826z"/>
		<path d="M336.557,48.591c-0.732-2.398-2.098-4.331-4.097-5.797c-1.999-1.468-4.256-2.201-6.769-2.201
			c-2.514,0-4.77,0.733-6.769,2.201c-1.999,1.466-3.364,3.398-4.097,5.797c-0.158,0.495-0.118,0.978,0.119,1.442
			c0.237,0.466,0.613,0.777,1.128,0.936c0.494,0.159,0.975,0.12,1.439-0.119c0.465-0.238,0.777-0.612,0.936-1.13
			c0.494-1.584,1.41-2.868,2.746-3.85c1.335-0.98,2.835-1.472,4.497-1.472c1.663,0,3.162,0.491,4.498,1.472
			c1.336,0.981,2.251,2.266,2.745,3.85c0.158,0.518,0.476,0.892,0.95,1.13c0.476,0.239,0.96,0.278,1.455,0.119
			c0.494-0.158,0.861-0.47,1.099-0.936C336.676,49.568,336.715,49.086,336.557,48.591z"/>
		<path d="M346.016,161.556c-15.795-16.179-38.08-26.275-62.737-26.275c-24.836,0-47.265,10.243-63.079,26.628
			c-1.81,2.962,2.249,5.43,5.837,4.338c2.448-0.742,4.677-4.859,4.677-4.859c14.043-12.037,32.446-19.345,52.565-19.345
			c20.233,0,38.731,7.391,52.804,19.55C339.309,166.355,350.369,168.351,346.016,161.556z"/>
	</g>
</defs>
</svg>
